<svg xmlns="http://www.w3.org/2000/svg" version="1.1" xmlns:xlink="http://www.w3.org/1999/xlink" xmlns:svgjs="http://svgjs.dev/svgjs" viewBox="0 0 1920 1080"><rect width="1920" height="1080" fill="#4095c9"></rect><g transform="matrix(7.04171909509728e-17,1.15,-1.15,7.04171909509728e-17,1540.102523803711,-516.9679023742674)"><path d="M0,-1080C14.41061389128025,-1011.982711269946,97.60286904065377,-831.024609990106,86.4636833476815,-671.896267619676C75.32449765470922,-512.767925249246,-56.63507236729095,-297.53863037393637,-66.83511415783363,-125.2299457774199C-77.0351559483763,47.078738819096586,27.756664616075707,203.91245219837563,25.263432604425446,361.9558399594229C22.770200592775186,519.9992277204702,-81.5497290949258,683.1336634838983,-81.7945062277352,823.0303807888638C-82.0392833605446,962.9270980938293,22.274104338562015,1066.4488329185933,23.794769807569025,1201.336143789216C25.315435276576036,1336.2234546598388,-68.70471844576495,1472.5769366441355,-72.67051341369313,1632.3542460125996C-76.6363083816213,1792.1315553810637,-12.111752235615521,2072.0590410021,0,2160L 1920 2160 L 1920 -1080 Z" fill="url(&quot;#SvgjsLinearGradient1176&quot;)"></path><path d="M274.2857142857143,-1080C287.8591745207273,-966.6811323152813,363.95315065013904,-610.6629220080446,355.7264756957926,-400.08679389168776C347.49980074144617,-189.51066577533098,226.51383415441626,-28.672355672097808,224.9256645596358,183.45676869814073C223.33749496485535,395.5858930683793,340.55051034823424,650.143652849951,346.1974581271099,872.6879523297436C351.8444059059855,1095.2322518095361,270.7926418731224,1304.1705576318534,258.8073512328898,1518.7225655768962C246.8220605926572,1733.274573521939,271.70598711024354,2053.1204275961495,274.2857142857143,2160L 1920 2160 L 1920 -1080 Z" fill="url(&quot;#SvgjsLinearGradient1177&quot;)"></path><path d="M548.5714285714286,-1080C540.9171092566298,-987.148168510245,488.9432280695028,-713.5545601061365,502.64551268263637,-522.8890110614698C516.3477972957699,-332.22346201680307,622.3566124028749,-100.15950785639856,630.7851362502297,63.99329426800006C639.2136600975845,228.14609639239868,568.6554430697586,291.2869199777923,553.2166557667647,462.02780168492194C537.7778684637708,632.7686833920516,550.4513067799918,905.6904564151044,538.1524124322664,1088.438584510778C525.853518084541,1271.1867126064512,477.6867869905517,1379.923001010759,479.42328968041204,1558.5165702589627C481.1597923702724,1737.1101395071664,537.0467387562592,2059.752761709827,548.5714285714286,2160L 1920 2160 L 1920 -1080 Z" fill="url(&quot;#SvgjsLinearGradient1178&quot;)"></path><path d="M822.8571428571428,-1080C831.3066249060244,-1003.6707895843691,870.6646329075426,-793.6749882745087,873.5540351504324,-622.0247375062147C876.4434373933221,-450.37448673792073,851.1969036310318,-239.97905595035473,840.1935563144813,-50.09849539023644C829.1902089979308,139.78206516988183,798.815761101521,331.270251292715,807.5339512511291,517.258625854495C816.2521414007372,703.247000416275,901.6998367650634,874.7617388228733,892.5026972121295,1065.8317519804439C883.3055576591956,1256.9017651380143,763.9587063260237,1481.3173301299921,752.3511139335259,1663.678704799918C740.743521541028,1846.040079469844,811.10613803654,2077.2797841333195,822.8571428571428,2160L 1920 2160 L 1920 -1080 Z" fill="url(&quot;#SvgjsLinearGradient1179&quot;)"></path><path d="M1097.142857142857,-1080C1098.103205548092,-1002.406004693846,1097.4153617238019,-779.5279618663093,1102.904947574267,-614.4360281630753C1108.3945334247321,-449.34409445984136,1124.6659307523546,-249.83641595392862,1130.080372245648,-89.44839778059608C1135.4948137389415,70.93962039273646,1144.8746518407227,200.9905730083727,1135.391596534027,347.89208087691986C1125.9085412273314,494.793588745467,1078.2315843192869,650.5056393625686,1073.1820404054747,791.9606494306869C1068.1324964916626,933.4156594988052,1094.280152147081,1056.5755280524647,1105.0943330511543,1196.6221412856298C1115.9085139552276,1336.668754518795,1139.3923718146305,1471.6773523772827,1138.0671258299142,1632.2403288296778C1136.741879845198,1792.8033052820729,1103.9635685906999,2072.0400548049465,1097.142857142857,2160L 1920 2160 L 1920 -1080 Z" fill="url(&quot;#SvgjsLinearGradient1180&quot;)"></path><path d="M1371.4285714285716,-1080C1357.5470537072533,-1002.0416199040235,1278.0896198569133,-762.0640719599947,1288.1394651006622,-612.2497194241408C1298.189310344411,-462.4353668882869,1420.9793802947654,-294.7473892626203,1431.7276428910645,-181.11388478487655C1442.4759054873637,-67.48038030713279,1367.3976975371952,-48.20352286668694,1352.6290406784574,69.5513074423217C1337.8603838197196,187.30613775133034,1354.3363230611787,387.5546829706976,1343.1157017386374,525.4150970691753C1331.895080416096,663.275511167653,1271.741849608944,765.2787517745895,1285.30531274321,896.7137920331877C1298.8687758774759,1028.1488322917858,1409.0702359421934,1174.1553986419717,1424.4964805442323,1314.0253386207644C1439.9227251462712,1453.895278599557,1386.7074318747202,1594.9376550094053,1377.8627803554434,1735.9334319059444C1369.0181288361666,1876.9292088024836,1372.5009395830502,2089.3222386509906,1371.4285714285716,2160L 1920 2160 L 1920 -1080 Z" fill="url(&quot;#SvgjsLinearGradient1181&quot;)"></path><path d="M1645.7142857142856,-1080C1643.1243161743312,-1018.6999589444786,1636.558576490858,-838.6157211428211,1630.1744684745593,-712.1997536668712C1623.7903604582605,-585.7837861909212,1619.4008441903006,-458.27092660590426,1607.4096376164925,-321.5041951443001C1595.4184310426845,-184.73746368269602,1541.379293479217,-48.218149519024166,1558.2272290317105,108.40063510275345C1575.075164584204,265.0194197245311,1681.3572411396685,490.7874054472664,1708.4972509314532,618.2085125863656C1735.637260723238,745.6296197254649,1730.8984687801535,763.0114591221984,1721.0672877824186,872.9272779373487C1711.2361067846837,982.8430967524989,1671.9897786997067,1127.0814904005476,1649.510164945043,1277.7034254772668C1627.0305511903794,1428.325360553986,1586.8222517928955,1629.6094593105415,1586.189605254436,1776.6588883976638C1585.5569587159764,1923.708317484786,1635.7935056376439,2096.109814732944,1645.7142857142856,2160L 1920 2160 L 1920 -1080 Z" fill="url(&quot;#SvgjsLinearGradient1182&quot;)"></path></g><defs><linearGradient x1="0.1" y1="0" x2="0" y2="1" id="SvgjsLinearGradient1176"><stop stop-color="#4095c9" offset="0"></stop><stop stop-color="#40acc9" offset="0"></stop></linearGradient><linearGradient x1="0.1" y1="0" x2="0" y2="1" id="SvgjsLinearGradient1177"><stop stop-color="#5ca5d1" offset="0"></stop><stop stop-color="#5cb8d1" offset="0.14285714285714285"></stop></linearGradient><linearGradient x1="0.1" y1="0" x2="0" y2="1" id="SvgjsLinearGradient1178"><stop stop-color="#78b4d9" offset="0"></stop><stop stop-color="#78c4d9" offset="0.2857142857142857"></stop></linearGradient><linearGradient x1="0.1" y1="0" x2="0" y2="1" id="SvgjsLinearGradient1179"><stop stop-color="#94c4e1" offset="0"></stop><stop stop-color="#94d1e1" offset="0.42857142857142855"></stop></linearGradient><linearGradient x1="0.1" y1="0" x2="0" y2="1" id="SvgjsLinearGradient1180"><stop stop-color="#b0d3e9" offset="0"></stop><stop stop-color="#b0dce9" offset="0.5714285714285714"></stop></linearGradient><linearGradient x1="0.1" y1="0" x2="0" y2="1" id="SvgjsLinearGradient1181"><stop stop-color="#cce3f1" offset="0"></stop><stop stop-color="#cce9f1" offset="0.7142857142857143"></stop></linearGradient><linearGradient x1="0.1" y1="0" x2="0" y2="1" id="SvgjsLinearGradient1182"><stop stop-color="#e8f2f8" offset="0"></stop><stop stop-color="#e8f5f8" offset="0.8571428571428571"></stop></linearGradient></defs></svg>